<svg width="71" height="71" viewBox="0 0 71 71" fill="none" xmlns="http://www.w3.org/2000/svg">
<g filter="url(#filter0_d_103_7)">
<circle cx="35.5" cy="33.5" r="29" fill="#343333" stroke="white" stroke-width="5"/>
<path d="M34.1577 36.8977H38.8622L41.2273 39.9403L43.554 42.6506L47.9389 48.1477H42.7741L39.7571 44.4403L38.2102 42.2415L34.1577 36.8977ZM48.3352 32.9091C48.3352 35.7642 47.794 38.1932 46.7116 40.196C45.6378 42.1989 44.1719 43.7287 42.3139 44.7855C40.4645 45.8338 38.3849 46.358 36.0753 46.358C33.7486 46.358 31.6605 45.8295 29.8111 44.7727C27.9616 43.7159 26.5 42.1861 25.4261 40.1832C24.3523 38.1804 23.8153 35.7557 23.8153 32.9091C23.8153 30.054 24.3523 27.625 25.4261 25.6222C26.5 23.6193 27.9616 22.0937 29.8111 21.0455C31.6605 19.9886 33.7486 19.4602 36.0753 19.4602C38.3849 19.4602 40.4645 19.9886 42.3139 21.0455C44.1719 22.0937 45.6378 23.6193 46.7116 25.6222C47.794 27.625 48.3352 30.054 48.3352 32.9091ZM42.723 32.9091C42.723 31.0597 42.446 29.5 41.892 28.2301C41.3466 26.9602 40.5753 25.9972 39.5781 25.3409C38.581 24.6847 37.4134 24.3565 36.0753 24.3565C34.7372 24.3565 33.5696 24.6847 32.5724 25.3409C31.5753 25.9972 30.7997 26.9602 30.2457 28.2301C29.7003 29.5 29.4276 31.0597 29.4276 32.9091C29.4276 34.7585 29.7003 36.3182 30.2457 37.5881C30.7997 38.858 31.5753 39.821 32.5724 40.4773C33.5696 41.1335 34.7372 41.4616 36.0753 41.4616C37.4134 41.4616 38.581 41.1335 39.5781 40.4773C40.5753 39.821 41.3466 38.858 41.892 37.5881C42.446 36.3182 42.723 34.7585 42.723 32.9091Z" fill="white"/>
</g>
<defs>
<filter id="filter0_d_103_7" x="0" y="0" width="71" height="71" filterUnits="userSpaceOnUse" color-interpolation-filters="sRGB">
<feFlood flood-opacity="0" result="BackgroundImageFix"/>
<feColorMatrix in="SourceAlpha" type="matrix" values="0 0 0 0 0 0 0 0 0 0 0 0 0 0 0 0 0 0 127 0" result="hardAlpha"/>
<feOffset dy="2"/>
<feGaussianBlur stdDeviation="2"/>
<feComposite in2="hardAlpha" operator="out"/>
<feColorMatrix type="matrix" values="0 0 0 0 0 0 0 0 0 0 0 0 0 0 0 0 0 0 0.68 0"/>
<feBlend mode="normal" in2="BackgroundImageFix" result="effect1_dropShadow_103_7"/>
<feBlend mode="normal" in="SourceGraphic" in2="effect1_dropShadow_103_7" result="shape"/>
</filter>
</defs>
</svg>
